<svg xmlns="http://www.w3.org/2000/svg" width="124.541" height="128" viewBox="0 0 124.541 128" fill="none">
  <g clip-path="url(#clip0_917_393)">
    <path d="M58.192 3.494c-0.266 0.024 -1.121 0.107 -1.885 0.17 -17.692 1.591 -34.259 11.14 -44.752 25.808a61.579 61.579 0 0 0 -10.994 27.202C0.062 60.094 0 61.105 0 65.74s0.062 5.649 0.56 9.071c3.383 23.383 20.027 43.029 42.596 50.308 4.041 1.304 8.303 2.19 13.146 2.726 1.889 0.208 10.046 0.208 11.935 0 8.362 -0.924 15.447 -2.992 22.435 -6.559 1.072 -0.55 1.28 -0.692 1.131 -0.816 -0.097 -0.073 -4.663 -6.196 -10.14 -13.596l-9.96 -13.45 -12.478 -18.467c-6.867 -10.15 -12.513 -18.453 -12.561 -18.453 -0.048 -0.014 -0.1 8.192 -0.125 18.211 -0.035 17.54 -0.048 18.245 -0.266 18.66 -0.315 0.595 -0.56 0.837 -1.072 1.107 -0.387 0.194 -0.726 0.232 -2.567 0.232h-2.11l-0.554 -0.353a2.283 2.283 0 0 1 -0.82 -0.889l-0.256 -0.55 0.024 -24.403 0.038 -24.417 0.381 -0.477a3.459 3.459 0 0 1 0.899 -0.74c0.498 -0.242 0.692 -0.27 2.799 -0.27 2.484 0 2.896 0.097 3.542 0.803 0.183 0.197 6.94 10.371 15.021 22.628 8.085 12.26 19.138 28.997 24.569 37.214l9.859 14.935 0.502 -0.329c4.418 -2.871 9.091 -6.964 12.793 -11.223a61.925 61.925 0 0 0 14.658 -31.831c0.498 -3.421 0.56 -4.428 0.56 -9.071 0 -4.636 -0.062 -5.646 -0.56 -9.064C120.597 33.287 103.957 13.641 81.384 6.365c-3.978 -1.29 -8.216 -2.179 -12.966 -2.716 -1.169 -0.121 -9.216 -0.253 -10.226 -0.156m25.493 37.66a2.422 2.422 0 0 1 1.228 1.436c0.1 0.318 0.125 7.085 0.1 22.338l-0.035 21.885 -3.861 -5.916 -3.875 -5.916v-15.91c0 -10.285 0.052 -16.066 0.125 -16.346a2.491 2.491 0 0 1 1.204 -1.533c0.498 -0.256 0.682 -0.28 2.595 -0.28 1.799 0 2.117 0.024 2.518 0.242" fill="black"/>
  </g>
  <defs>
    <clipPath id="clip0_917_393">
      <path width="128" height="128" fill="white" transform="translate(0 1)" d="M0 0H124.541V124.541H0V0z"/>
    </clipPath>
  </defs>
</svg>
